<mxfile host="65bd71144e">
    <diagram id="038qzloWddNMI7IDvKrK" name="Page-1">
        <mxGraphModel dx="2025" dy="782" grid="1" gridSize="10" guides="1" tooltips="1" connect="1" arrows="1" fold="1" page="1" pageScale="1" pageWidth="827" pageHeight="583" math="0" shadow="0">
            <root>
                <mxCell id="0"/>
                <mxCell id="1" parent="0"/>
                <mxCell id="2" value="&lt;b&gt;GreenwichGram - Login&lt;/b&gt;&lt;br&gt;index.php&lt;br&gt;1.0" style="rounded=0;whiteSpace=wrap;html=1;fillColor=#d5e8d4;strokeColor=#82b366;" parent="1" vertex="1">
                    <mxGeometry y="220" width="150" height="60" as="geometry"/>
                </mxCell>
                <mxCell id="3" value="" style="rounded=0;whiteSpace=wrap;html=1;" parent="1" vertex="1">
                    <mxGeometry x="160" y="140" width="120" height="60" as="geometry"/>
                </mxCell>
                <mxCell id="4" value="&lt;b&gt;GreenwichGram - Login&lt;/b&gt;&lt;br&gt;&lt;i&gt;index.php&lt;/i&gt;&lt;br&gt;1.0" style="rounded=0;whiteSpace=wrap;html=1;fillColor=#d5e8d4;strokeColor=#82b366;" vertex="1" parent="1">
                    <mxGeometry x="-10" y="393" width="150" height="60" as="geometry"/>
                </mxCell>
                <mxCell id="5" value="&lt;b&gt;Sign Up&lt;/b&gt;&lt;br&gt;&lt;i&gt;signup.php&lt;/i&gt;&lt;br&gt;2.1" style="rounded=0;whiteSpace=wrap;html=1;fillColor=#ffe6cc;strokeColor=#d79b00;" vertex="1" parent="1">
                    <mxGeometry x="360" y="233" width="120" height="60" as="geometry"/>
                </mxCell>
                <mxCell id="6" value="&lt;b&gt;Forgot Pasword&lt;br&gt;&lt;/b&gt;&lt;i&gt;forgot_password.php&lt;/i&gt;&lt;br&gt;2.2" style="rounded=0;whiteSpace=wrap;html=1;fillColor=#ffe6cc;strokeColor=#d79b00;" vertex="1" parent="1">
                    <mxGeometry x="360" y="313" width="120" height="60" as="geometry"/>
                </mxCell>
                <mxCell id="7" value="&lt;b&gt;User&lt;br&gt;2.0&lt;br&gt;&lt;/b&gt;" style="rounded=0;whiteSpace=wrap;html=1;fillColor=#dae8fc;strokeColor=#6c8ebf;" vertex="1" parent="1">
                    <mxGeometry x="190" y="263" width="120" height="60" as="geometry"/>
                </mxCell>
                <mxCell id="8" value="&lt;b&gt;Admin&lt;br&gt;3.0&lt;br&gt;&lt;/b&gt;" style="rounded=0;whiteSpace=wrap;html=1;fillColor=#dae8fc;strokeColor=#6c8ebf;" vertex="1" parent="1">
                    <mxGeometry x="190" y="523" width="120" height="60" as="geometry"/>
                </mxCell>
                <mxCell id="9" value="&lt;b&gt;Verify&lt;br&gt;&lt;/b&gt;&lt;i&gt;verify_email.php&lt;/i&gt;&lt;br&gt;2.3" style="rounded=0;whiteSpace=wrap;html=1;fillColor=#ffe6cc;strokeColor=#d79b00;" vertex="1" parent="1">
                    <mxGeometry x="520" y="273" width="120" height="60" as="geometry"/>
                </mxCell>
                <mxCell id="10" value="&lt;b&gt;Home wall&lt;br&gt;&lt;/b&gt;&lt;i&gt;wall.php&lt;/i&gt;&lt;br&gt;2.4" style="rounded=0;whiteSpace=wrap;html=1;fillColor=#ffe6cc;strokeColor=#d79b00;" vertex="1" parent="1">
                    <mxGeometry x="680" y="273" width="120" height="60" as="geometry"/>
                </mxCell>
                <mxCell id="11" value="&lt;b&gt;Profile wall&lt;br&gt;&lt;/b&gt;&lt;i&gt;profile.php&lt;/i&gt;&lt;br&gt;2.5" style="rounded=0;whiteSpace=wrap;html=1;fillColor=#ffe6cc;strokeColor=#d79b00;" vertex="1" parent="1">
                    <mxGeometry x="870" y="183" width="120" height="60" as="geometry"/>
                </mxCell>
                <mxCell id="12" value="&lt;b&gt;Edit profile&lt;br&gt;&lt;/b&gt;&lt;i&gt;edit_profile.php&lt;/i&gt;&lt;br&gt;2.6" style="rounded=0;whiteSpace=wrap;html=1;fillColor=#ffe6cc;strokeColor=#d79b00;" vertex="1" parent="1">
                    <mxGeometry x="870" y="253" width="120" height="60" as="geometry"/>
                </mxCell>
                <mxCell id="13" value="&lt;b&gt;Sign Up&lt;/b&gt;&lt;br&gt;&lt;i&gt;login.php&lt;/i&gt;&lt;br&gt;&lt;b&gt;3.0&lt;/b&gt;" style="rounded=0;whiteSpace=wrap;html=1;fillColor=#ffe6cc;strokeColor=#d79b00;" vertex="1" parent="1">
                    <mxGeometry x="370" y="523" width="120" height="60" as="geometry"/>
                </mxCell>
            </root>
        </mxGraphModel>
    </diagram>
</mxfile>